<?xml version="1.0" encoding="UTF-8"?>
<svg width="33px" height="33px" viewBox="0 0 33 33" version="1.1" xmlns="http://www.w3.org/2000/svg" xmlns:xlink="http://www.w3.org/1999/xlink">
    <!-- Generator: Sketch 52.2 (67145) - http://www.bohemiancoding.com/sketch -->
    <title>facebook</title>
    <desc>Created with Sketch.</desc>
    <g id="Symbols" stroke="none" stroke-width="1" fill="none" fill-rule="evenodd">
        <g id="Footer" transform="translate(-723.000000, -113.000000)">
            <g id="Group-9">
                <g transform="translate(434.000000, 70.000000)">
                    <g id="Group-3" transform="translate(289.000000, 0.000000)">
                        <g id="Group" transform="translate(0.000000, 43.000000)">
                            <g id="facebook">
                                <path d="M3.92259226,0 C1.75607561,0 0,1.75247525 0,3.91359136 L0,29.0864086 C0,31.2484248 1.75607561,33 3.92259226,33 L29.0774077,33 C31.2439244,33 33,31.2484248 33,29.0864086 L33,3.91359136 C33,1.75247525 31.2439244,0 29.0774077,0 L3.92259226,0 Z" id="youtube" fill="#4267B2"></path>
                                <rect id="Rectangle" fill="#FFFFFF" x="12.1" y="2.2" width="16.5" height="30.8"></rect>
                                <path d="M29.0774077,33 L22.7694696,33 L22.7694696,20.220152 L27.0590831,20.220152 L27.701806,15.2401732 L22.7694696,15.2401732 L22.7694696,12.0607175 C22.7694696,10.6188608 23.1703849,9.63544987 25.2378851,9.63544987 L27.8752962,9.63455095 L27.8752962,5.18043638 C27.4186484,5.11931029 25.8536406,4.98357441 24.0324426,4.98357441 C20.23004,4.98357441 17.6267876,7.30456811 17.6267876,11.5672142 L17.6267876,15.2401732 L13.3263872,15.2401732 L13.3263872,20.220152 L17.6267876,20.220152 L17.6267876,33 L6.54951172,33 C5.54362792,33 4.72831371,25.155127 4.72831371,24.1492432 L0,6.32312012 C0,5.31723632 5.54362792,2.2 6.54951172,2.2 L27.0590831,0 C28.0649669,0 33,4.7744873 33,5.78037109 L33,25.7119629 C33,26.7178467 30.0832915,33 29.0774077,33 Z" id="Facebook" fill="#4267B2"></path>
                            </g>
                        </g>
                    </g>
                </g>
            </g>
        </g>
    </g>
</svg>